<?xml version="1.0" encoding="UTF-8" standalone="no"?>
<svg
   xmlns:dc="http://purl.org/dc/elements/1.1/"
   xmlns:cc="http://creativecommons.org/ns#"
   xmlns:rdf="http://www.w3.org/1999/02/22-rdf-syntax-ns#"
   xmlns:svg="http://www.w3.org/2000/svg"
   xmlns="http://www.w3.org/2000/svg"
   xmlns:sodipodi="http://sodipodi.sourceforge.net/DTD/sodipodi-0.dtd"
   xmlns:inkscape="http://www.inkscape.org/namespaces/inkscape"
   sodipodi:docname="bevy_ui.svg"
   inkscape:version="1.0 (4035a4fb49, 2020-05-01)"
   id="svg8"
   version="1.1"
   viewBox="0 0 100.93018 79.301499"
   height="79.301498mm"
   width="100.93018mm">
  <defs
     id="defs2" />
  <sodipodi:namedview
     inkscape:window-maximized="1"
     inkscape:window-y="0"
     inkscape:window-x="0"
     inkscape:window-height="1440"
     inkscape:window-width="3440"
     fit-margin-bottom="0"
     fit-margin-right="0"
     fit-margin-left="0"
     fit-margin-top="0"
     showgrid="false"
     inkscape:document-rotation="0"
     inkscape:current-layer="g974"
     inkscape:document-units="mm"
     inkscape:cy="311.00354"
     inkscape:cx="390.6065"
     inkscape:zoom="1.4"
     inkscape:pageshadow="2"
     inkscape:pageopacity="0.0"
     borderopacity="1.0"
     bordercolor="#666666"
     pagecolor="#ffffff"
     id="base" />
  <metadata
     id="metadata5">
    <rdf:RDF>
      <cc:Work
         rdf:about="">
        <dc:format>image/svg+xml</dc:format>
        <dc:type
           rdf:resource="http://purl.org/dc/dcmitype/StillImage" />
        <dc:title></dc:title>
      </cc:Work>
    </rdf:RDF>
  </metadata>
  <g
     transform="translate(-22.624211,-47.576727)"
     id="layer1"
     inkscape:groupmode="layer"
     inkscape:label="Layer 1">
    <g
       transform="matrix(0.58858828,0,0,0.58858828,9.3078648,19.573623)"
       id="g974">
      <rect
         ry="9.392705"
         y="50.547272"
         x="25.484262"
         height="129.04105"
         width="165.64777"
         id="rect833-2"
         style="fill:none;stroke:#ececec;stroke-width:4.1438134;stroke-miterlimit:4;stroke-dasharray:none;stroke-opacity:1;paint-order:markers stroke fill;stop-color:#000000" />
      <g
         id="g1004"
         transform="translate(-2.4175095,-1.3485697)">
        <rect
           ry="9.392705"
           y="139.81091"
           x="119.03116"
           height="30.146235"
           width="63.156746"
           id="rect833-2-4"
           style="fill:none;stroke:#ffc14d;stroke-width:3.12443;stroke-miterlimit:4;stroke-dasharray:none;stroke-opacity:1;paint-order:markers stroke fill;stop-color:#000000" />
        <g
           style="font-style:normal;font-weight:normal;font-size:17.9809px;line-height:1.25;font-family:sans-serif;letter-spacing:0px;word-spacing:0px;fill:#ffc14d;fill-opacity:1;stroke:none;stroke-width:0.449522"
           id="text902"
           aria-label="Button">
          <path
             id="path933"
             style="font-style:normal;font-variant:normal;font-weight:600;font-stretch:normal;font-size:17.9809px;font-family:'Fira Sans';-inkscape-font-specification:'Fira Sans, Semi-Bold';font-variant-ligatures:normal;font-variant-caps:normal;font-variant-numeric:normal;font-variant-east-asian:normal;fill:#ffc14d;fill-opacity:1;stroke-width:0.449522"
             d="m 130.706,154.46786 c 1.15077,-0.26971 2.28357,-1.11481 2.28357,-2.67915 0,-2.30156 -1.99588,-3.18262 -5.25042,-3.18262 h -3.39839 v 12.44278 h 3.88387 c 3.05676,0 5.30437,-0.82712 5.30437,-3.61416 0,-2.03184 -1.42049,-2.69713 -2.823,-2.96685 z m -2.71512,-3.9558 c 1.52838,0 2.30156,0.35962 2.30156,1.5104 0,1.11482 -0.7552,1.63626 -2.01386,1.63626 h -1.29463 v -3.14666 z m 0.25173,8.57689 h -1.25866 v -3.63214 h 1.49242 c 1.33058,0 2.30155,0.48549 2.30155,1.87002 0,1.47443 -1.06087,1.76212 -2.53531,1.76212 z" />
          <path
             id="path935"
             style="font-style:normal;font-variant:normal;font-weight:600;font-stretch:normal;font-size:17.9809px;font-family:'Fira Sans';-inkscape-font-specification:'Fira Sans, Semi-Bold';font-variant-ligatures:normal;font-variant-caps:normal;font-variant-numeric:normal;font-variant-east-asian:normal;fill:#ffc14d;fill-opacity:1;stroke-width:0.449522"
             d="m 143.09483,151.51899 h -2.55328 v 6.67092 c -0.44953,0.77318 -1.0429,1.24068 -1.74415,1.24068 -0.70126,0 -1.04289,-0.34164 -1.04289,-1.38453 v -6.52707 h -2.55329 v 6.85073 c 0,1.83405 0.89904,2.96685 2.66117,2.96685 1.27665,0 2.19367,-0.50347 2.89493,-1.56434 l 0.12586,1.27664 h 2.21165 z" />
          <path
             id="path937"
             style="font-style:normal;font-variant:normal;font-weight:600;font-stretch:normal;font-size:17.9809px;font-family:'Fira Sans';-inkscape-font-specification:'Fira Sans, Semi-Bold';font-variant-ligatures:normal;font-variant-caps:normal;font-variant-numeric:normal;font-variant-east-asian:normal;fill:#ffc14d;fill-opacity:1;stroke-width:0.449522"
             d="m 150.41306,158.98107 c -0.39558,0.21577 -0.73722,0.32365 -1.07886,0.32365 -0.64731,0 -0.95299,-0.35961 -0.95299,-1.29462 v -4.69302 h 1.94194 l 0.25173,-1.79809 h -2.19367 v -2.39146 l -2.55328,0.30568 v 2.08578 h -1.4205 v 1.79809 h 1.4205 v 4.74696 c 0,2.12175 1.00693,3.25454 2.98482,3.27253 0.84511,0 1.78011,-0.25174 2.48137,-0.73722 z" />
          <path
             id="path939"
             style="font-style:normal;font-variant:normal;font-weight:600;font-stretch:normal;font-size:17.9809px;font-family:'Fira Sans';-inkscape-font-specification:'Fira Sans, Semi-Bold';font-variant-ligatures:normal;font-variant-caps:normal;font-variant-numeric:normal;font-variant-east-asian:normal;fill:#ffc14d;fill-opacity:1;stroke-width:0.449522"
             d="m 157.24578,158.98107 c -0.39558,0.21577 -0.73722,0.32365 -1.07885,0.32365 -0.64732,0 -0.95299,-0.35961 -0.95299,-1.29462 v -4.69302 h 1.94194 l 0.25173,-1.79809 h -2.19367 v -2.39146 l -2.55329,0.30568 v 2.08578 h -1.42049 v 1.79809 h 1.42049 v 4.74696 c 0,2.12175 1.00693,3.25454 2.98483,3.27253 0.8451,0 1.78011,-0.25174 2.48136,-0.73722 z" />
          <path
             id="path941"
             style="font-style:normal;font-variant:normal;font-weight:600;font-stretch:normal;font-size:17.9809px;font-family:'Fira Sans';-inkscape-font-specification:'Fira Sans, Semi-Bold';font-variant-ligatures:normal;font-variant-caps:normal;font-variant-numeric:normal;font-variant-east-asian:normal;fill:#ffc14d;fill-opacity:1;stroke-width:0.449522"
             d="m 162.96369,151.2313 c -2.87694,0 -4.58513,2.01386 -4.58513,5.05263 0,3.16464 1.72617,5.05264 4.56715,5.05264 2.85896,0 4.56715,-2.03185 4.56715,-5.05264 0,-3.16464 -1.70819,-5.05263 -4.54917,-5.05263 z m 0,1.90598 c 1.24068,0 1.88799,0.95298 1.88799,3.14665 0,2.17569 -0.64731,3.14666 -1.90597,3.14666 -1.25866,0 -1.90598,-0.95299 -1.90598,-3.14666 0,-2.17569 0.64732,-3.14665 1.92396,-3.14665 z" />
          <path
             id="path943"
             style="font-style:normal;font-variant:normal;font-weight:600;font-stretch:normal;font-size:17.9809px;font-family:'Fira Sans';-inkscape-font-specification:'Fira Sans, Semi-Bold';font-variant-ligatures:normal;font-variant-caps:normal;font-variant-numeric:normal;font-variant-east-asian:normal;fill:#ffc14d;fill-opacity:1;stroke-width:0.449522"
             d="m 174.74117,151.2313 c -1.20472,0 -2.13972,0.53943 -2.89492,1.49241 l -0.19779,-1.20472 h -2.22963 v 9.52988 h 2.55328 v -6.58101 c 0.53943,-0.8451 1.11482,-1.33058 1.85204,-1.33058 0.62933,0 1.04289,0.30567 1.04289,1.40251 v 6.50908 h 2.55329 v -6.94063 c 0,-1.79809 -1.00693,-2.87694 -2.67916,-2.87694 z" />
        </g>
      </g>
      <path
         style="fill:none;fill-opacity:1;stroke:#ececec;stroke-width:4.14381;stroke-linecap:butt;stroke-linejoin:miter;stroke-miterlimit:4;stroke-dasharray:none;stroke-opacity:1"
         d="M 25.513996,79.87809 H 190.7133"
         id="path904" />
      <g
         aria-label="Text"
         id="text902-6"
         style="font-style:normal;font-weight:normal;font-size:17.9809px;line-height:1.25;font-family:sans-serif;letter-spacing:0px;word-spacing:0px;fill:#ececec;fill-opacity:1;stroke:none;stroke-width:0.449522"
         transform="translate(1.3292785,3.1626113)">
        <path
           d="M 45.671434,86.350785 H 33.156745 v 2.757067 h 4.411308 v 13.833288 h 3.524252 V 89.107852 h 4.195537 z"
           style="font-style:normal;font-variant:normal;font-weight:600;font-stretch:normal;font-size:23.9745px;font-family:'Fira Sans';-inkscape-font-specification:'Fira Sans, Semi-Bold';font-variant-ligatures:normal;font-variant-caps:normal;font-variant-numeric:normal;font-variant-east-asian:normal;fill:#ececec;fill-opacity:1;stroke-width:0.449522"
           id="path924" />
        <path
           d="m 56.819534,96.300203 c 0,-4.051691 -2.133731,-6.449141 -5.729906,-6.449141 -3.716047,0 -5.777854,2.972838 -5.777854,6.808758 0,3.97977 2.13373,6.66491 6.209395,6.66491 1.989884,0 3.572201,-0.71923 4.818875,-1.72616 l -1.414496,-1.917963 c -1.102827,0.767183 -2.013858,1.102823 -3.09271,1.102823 -1.630266,0 -2.781042,-0.71923 -3.020787,-3.16463 h 7.935559 c 0.02398,-0.359617 0.07192,-0.887056 0.07192,-1.318597 z M 53.439129,95.48507 h -4.627078 c 0.191796,-2.421425 1.006929,-3.308482 2.349501,-3.308482 1.630266,0 2.277577,1.246674 2.277577,3.164635 z"
           style="font-style:normal;font-variant:normal;font-weight:600;font-stretch:normal;font-size:23.9745px;font-family:'Fira Sans';-inkscape-font-specification:'Fira Sans, Semi-Bold';font-variant-ligatures:normal;font-variant-caps:normal;font-variant-numeric:normal;font-variant-east-asian:normal;fill:#ececec;fill-opacity:1;stroke-width:0.449522"
           id="path926" />
        <path
           d="m 65.498252,96.132381 3.572201,-5.897727 h -3.644125 l -1.941934,4.219512 -1.989884,-4.219512 h -3.83592 l 3.740022,6.0176 -4.171563,6.688886 h 3.740022 l 2.373476,-4.914773 2.421424,4.914773 h 3.907844 z"
           style="font-style:normal;font-variant:normal;font-weight:600;font-stretch:normal;font-size:23.9745px;font-family:'Fira Sans';-inkscape-font-specification:'Fira Sans, Semi-Bold';font-variant-ligatures:normal;font-variant-caps:normal;font-variant-numeric:normal;font-variant-east-asian:normal;fill:#ececec;fill-opacity:1;stroke-width:0.449522"
           id="path928" />
        <path
           d="m 77.605357,100.18407 c -0.527439,0.2877 -0.982954,0.43154 -1.43847,0.43154 -0.863082,0 -1.270648,-0.47949 -1.270648,-1.726161 v -6.257345 h 2.589246 l 0.335643,-2.39745 h -2.924889 v -3.188609 l -3.404379,0.407567 v 2.781042 h -1.893986 v 2.39745 h 1.893986 v 6.329268 c 0,2.828988 1.342572,4.339388 3.979767,4.363358 1.126801,0 2.373475,-0.33564 3.308481,-0.98295 z"
           style="font-style:normal;font-variant:normal;font-weight:600;font-stretch:normal;font-size:23.9745px;font-family:'Fira Sans';-inkscape-font-specification:'Fira Sans, Semi-Bold';font-variant-ligatures:normal;font-variant-caps:normal;font-variant-numeric:normal;font-variant-east-asian:normal;fill:#ececec;fill-opacity:1;stroke-width:0.449522"
           id="path930" />
      </g>
      <g
         aria-label="X"
         id="text991"
         style="font-style:normal;font-weight:normal;font-size:17.9809px;line-height:1.25;font-family:sans-serif;letter-spacing:0px;word-spacing:0px;fill:#ececec;fill-opacity:1;stroke:none;stroke-width:0.449522"
         transform="matrix(1,0,0,0.81647988,2.6035598,13.115717)">
        <path
           d="m 164.87179,56.585142 4.33939,7.791712 -4.69901,8.822617 h 4.17157 l 2.87694,-6.329269 2.92489,6.329269 h 4.24348 l -4.81887,-8.990438 4.41131,-7.623891 h -4.14759 l -2.56527,5.322339 -2.49335,-5.322339 z"
           style="font-style:normal;font-variant:normal;font-weight:bold;font-stretch:normal;font-size:23.9745px;font-family:'Fira Mono';-inkscape-font-specification:'Fira Mono, Bold';font-variant-ligatures:normal;font-variant-caps:normal;font-variant-numeric:normal;font-variant-east-asian:normal;fill:#ececec;fill-opacity:1;stroke-width:0.449522"
           id="path993" />
      </g>
    </g>
  </g>
</svg>
