<?xml version="1.0" encoding="UTF-8" standalone="no"?>
<svg
   xmlns:dc="http://purl.org/dc/elements/1.1/"
   xmlns:cc="http://creativecommons.org/ns#"
   xmlns:rdf="http://www.w3.org/1999/02/22-rdf-syntax-ns#"
   xmlns:svg="http://www.w3.org/2000/svg"
   xmlns="http://www.w3.org/2000/svg"
   xmlns:sodipodi="http://sodipodi.sourceforge.net/DTD/sodipodi-0.dtd"
   xmlns:inkscape="http://www.inkscape.org/namespaces/inkscape"
   inkscape:version="1.0 (4035a4fb49, 2020-05-01)"
   width="182.50328mm"
   height="157.64684mm"
   viewBox="0 0 182.50328 157.64684"
   version="1.1"
   id="svg8"
   sodipodi:docname="book.svg">
  <defs
     id="defs2" />
  <sodipodi:namedview
     fit-margin-bottom="0"
     fit-margin-right="0"
     fit-margin-left="0"
     fit-margin-top="0"
     inkscape:window-maximized="1"
     inkscape:window-y="0"
     inkscape:window-x="0"
     inkscape:window-height="1440"
     inkscape:window-width="3440"
     showgrid="false"
     inkscape:document-rotation="0"
     inkscape:current-layer="layer1"
     inkscape:document-units="mm"
     inkscape:cy="392.82193"
     inkscape:cx="696.57901"
     inkscape:zoom="1.4"
     inkscape:pageshadow="2"
     inkscape:pageopacity="0.0"
     borderopacity="1.0"
     bordercolor="#666666"
     pagecolor="#ffffff"
     id="base" />
  <metadata
     id="metadata5">
    <rdf:RDF>
      <cc:Work
         rdf:about="">
        <dc:format>image/svg+xml</dc:format>
        <dc:type
           rdf:resource="http://purl.org/dc/dcmitype/StillImage" />
        <dc:title></dc:title>
      </cc:Work>
    </rdf:RDF>
  </metadata>
  <g
     transform="translate(-24.301126,-55.017411)"
     id="layer1"
     inkscape:groupmode="layer"
     inkscape:label="Layer 1">
    <path
       sodipodi:nodetypes="sssss"
       d="m -56.430169,188.15428 c 10e-7,7.79443 -7.421513,16.07341 -14.096582,16.07341 -6.675069,0 -10.075979,-8.27898 -10.075978,-16.07341 -10e-7,-7.79443 4.696708,-14.07578 11.371777,-14.07578 6.675069,0 12.800784,6.28135 12.800783,14.07578 z"
       transform="rotate(-30.702526)"
       style="fill:#888888;fill-opacity:1;stroke:none;stroke-width:6.776;stroke-linecap:round;stroke-miterlimit:6.5;stroke-dasharray:none;stroke-opacity:1;paint-order:markers stroke fill;stop-color:#000000"
       id="path1839" />
    <path
       id="rect833-6"
       style="fill:#888888;stroke:#888888;stroke-width:1.855;stroke-linecap:round;stroke-miterlimit:6.5;paint-order:markers stroke fill;stop-color:#000000;fill-opacity:1;stroke-dasharray:none;stroke-opacity:1"
       d="m 93.766289,72.698718 c -3.232665,0 -6.682597,2.20784 -7.7354,4.95052 L 36.460382,206.78529 c -1.052803,2.74268 0.702435,4.94966 3.935101,4.94966 H 148.27526 c 3.23346,0 6.68309,-2.20698 7.7359,-4.94966 l 49.5698,-129.136052 c 1.05281,-2.74268 -0.70153,-4.95052 -3.935,-4.95052 z"
       sodipodi:nodetypes="sssssssss" />
    <path
       sodipodi:nodetypes="sssssssss"
       d="m 92.454703,70.739671 c -3.173389,0 -6.560061,2.167365 -7.593557,4.859754 L 36.199601,202.36755 c -1.033498,2.69239 0.689555,4.8589 3.862944,4.8589 H 145.96418 c 3.17416,0 6.56054,-2.16651 7.59404,-4.8589 L 202.21908,75.599425 c 1.0335,-2.692389 -0.68867,-4.859754 -3.86285,-4.859754 z"
       style="fill:#fbfdfa;fill-opacity:1;stroke:#888888;stroke-width:5.159;stroke-linecap:round;stroke-miterlimit:6.5;stroke-dasharray:none;stroke-opacity:1;paint-order:markers stroke fill;stop-color:#000000"
       id="rect833-5-7" />
    <path
       id="rect833-5-7-3"
       style="fill:#fbfdfa;fill-opacity:1;stroke:#888888;stroke-width:5.159;stroke-linecap:round;stroke-miterlimit:6.5;stroke-dasharray:none;stroke-opacity:1;paint-order:markers stroke fill;stop-color:#000000"
       d="m 89.461266,65.875374 c -3.173389,0 -6.560061,2.167365 -7.593558,4.859754 L 33.206163,197.50326 c -1.033498,2.69239 0.689555,4.8589 3.862944,4.8589 H 142.97074 c 3.17416,0 6.56054,-2.16651 7.59404,-4.8589 L 199.22564,70.735128 c 1.0335,-2.692389 -0.68867,-4.859754 -3.86285,-4.859754 z"
       sodipodi:nodetypes="sssssssss" />
    <path
       id="rect833-5"
       style="fill:#fbfdfa;fill-opacity:1;stroke:#888888;stroke-width:5.159;stroke-linecap:round;stroke-miterlimit:6.5;stroke-dasharray:none;stroke-opacity:1;paint-order:markers stroke fill;stop-color:#000000"
       d="m 86.286261,61.377462 c -3.173389,0 -6.56006,2.167365 -7.593558,4.859754 L 30.031158,193.00534 c -1.033498,2.69239 0.689555,4.8589 3.862944,4.8589 H 139.79573 c 3.17416,0 6.56054,-2.16651 7.59404,-4.8589 L 196.05063,66.237216 c 1.0335,-2.692389 -0.68867,-4.859754 -3.86285,-4.859754 z"
       sodipodi:nodetypes="sssssssss" />
    <path
       sodipodi:nodetypes="ssssssssssscccccccsccccsccssscccsccccccccsssccccccscsccccccccscscssccccscccccccccccccccccsccccccccccsc"
       d="m 83.421596,55.944976 c -3.232665,0 -6.682596,2.207848 -7.735399,4.950528 L 26.11569,190.03155 c -1.052803,2.74268 0.702435,4.94966 3.935101,4.94966 H 137.93057 c 3.23346,0 6.68309,-2.20698 7.7359,-4.94966 l 49.5698,-129.136046 c 1.05281,-2.74268 -0.70153,-4.950528 -3.935,-4.950528 z m 48.090074,33.485745 h 0.001 c 3.51869,0.01816 6.49696,1.249395 8.35537,3.652513 l 0.20216,0.261262 0.44234,-0.0371 c 5.40112,-0.473815 9.86752,0.04042 11.63187,2.476531 -2.23771,2.404777 -7.13044,5.709523 -12.74172,8.734883 l -0.54041,0.29092 -0.06,0.45574 c -0.29222,2.16332 -0.31624,4.48488 0.33125,6.85258 1.00777,3.68301 2.17566,5.61146 2.33779,7.78385 0.16212,2.17239 -0.59546,4.72224 -3.62577,9.92574 -4.83569,8.30555 -15.96718,17.52993 -29.7707,22.20191 -12.069206,3.59726 -28.497536,7.81184 -47.88252,6.42653 0.07416,-0.47966 0.21096,-1.18681 0.563429,-2.03396 0.263902,-0.63461 0.635385,-1.24111 1.033989,-1.62684 0.398704,-0.38566 0.735161,-0.58433 1.405172,-0.63539 3.152504,-0.24145 10.56776,-1.50481 17.839606,-3.48361 3.635673,-0.98892 7.217004,-2.15338 10.198478,-3.48518 2.981274,-1.33179 5.439148,-2.82674 6.631057,-4.67608 0.519397,-0.80683 1.119855,-1.79077 1.765347,-2.88357 l 0.127097,-0.21185 -0.01701,-0.20103 c -0.258197,-2.92896 -3.276499,-4.63742 -7.490713,-5.64938 -4.214114,-1.01205 -9.734425,-1.3483 -15.463995,-1.35572 -10.307061,-0.014 -20.573791,0.97251 -25.534174,1.29138 14.966615,-10.81577 28.709796,-15.77122 39.346909,-17.48704 l 2.777118,-0.44833 -2.021541,-0.9774 c -6.375163,-3.07811 -12.320297,-5.32961 -15.512532,-6.6787 14.283294,-4.33077 25.615233,-4.95299 34.104703,-3.72092 l 1.15488,0.16812 0.20216,-1.03592 c 0.73256,-3.773694 3.16141,-6.799022 8.5305,-10.15981 4.08912,-2.558933 8.16123,-3.751413 11.67891,-3.73413 z m -1.55919,6.71337 c -0.02,0 -0.041,0 -0.062,0 -0.19114,0.0026 -0.38829,0.02304 -0.58744,0.06014 -1.51716,0.288409 -2.84617,1.508998 -2.96526,2.724523 -0.1201,1.215616 1.01277,1.967186 2.53093,1.677906 1.51715,-0.28841 2.84416,-1.507252 2.96526,-2.72365 0.0991,-1.010393 -0.67352,-1.728186 -1.87543,-1.738922 -0.002,0 -0.004,0 -0.006,0 z m 19.90518,5.495219 c 0.14211,-0.002 0.28422,-7.8e-4 0.42433,0.002 5.60227,0.0997 8.7887,3.15392 8.27131,7.89016 l -0.039,0.35685 0.33025,0.15658 c 3.47064,1.64 5.73837,3.79673 5.40012,6.57568 -2.7451,1.24278 -7.53775,2.29354 -12.59861,2.82756 l -0.56844,0.061 -0.34926,0.43761 c -1.45912,1.82707 -2.85418,3.90556 -3.87196,6.28066 -1.5812,3.68629 -2.02554,5.85948 -3.20144,7.84151 -1.17589,1.98281 -3.11537,3.94922 -7.9991,7.42697 -4.52445,3.22156 -10.51001,5.88096 -16.88988,7.3224 9.48523,-5.15654 16.90089,-12.14269 20.74182,-18.73978 3.09936,-5.32134 4.02207,-8.24201 3.83793,-10.72513 -0.18615,-2.48309 -1.39206,-4.3934 -2.37081,-7.97257 -0.56443,-2.06195 -0.55743,-4.07611 -0.33225,-6.00868 2.02854,-1.10681 3.96002,-2.23667 5.73437,-3.36245 0.0871,-0.0165 0.16613,-0.0354 0.25419,-0.0511 1.14688,-0.20688 2.2237,-0.3091 3.22646,-0.31896 z m -0.21216,7.10313 c -0.9157,0.007 -1.92347,0.52085 -2.4949,1.27245 -0.72756,0.95599 -0.51339,1.9746 0.47736,2.27541 0.99176,0.29998 2.38582,-0.23241 3.11238,-1.18921 0.72955,-0.95681 0.51539,-1.97543 -0.47637,-2.27541 -0.18314,-0.0553 -0.38629,-0.0833 -0.60045,-0.0833 -0.006,0 -0.012,0 -0.018,0 z m 2.07158,12.42943 c 1.41308,-0.023 2.85418,0.19859 4.37234,0.67005 5.81543,1.80727 6.79218,6.9185 2.89721,12.02231 1.21192,2.99155 1.42008,6.15532 -1.01478,8.88403 -2.67604,0.24721 -6.43391,-0.75079 -10.04166,-2.30588 -1.87543,1.03676 -3.82892,2.30012 -5.73637,3.95411 -6.05762,5.25299 -6.05162,7.05537 -16.03123,9.56559 -5.66632,1.42494 -12.08121,1.31783 -17.49834,-0.65354 1.88944,-0.65268 3.72884,-1.38531 5.5122,-2.18472 8.35938,-1.11095 16.48657,-4.39588 22.44912,-8.64258 5.01082,-3.5668 7.31558,-5.84221 8.68663,-8.15384 1.37004,-2.31086 1.77635,-4.48248 3.30652,-8.05006 0.81462,-1.89962 1.90145,-3.56766 3.07034,-5.10302 0.009,0 0.017,0 0.027,0 z m 1.07782,8.58655 c -0.016,0 -0.031,0 -0.048,0 -0.42032,0.008 -0.87467,0.14088 -1.28198,0.37666 -0.93972,0.54469 -1.37905,1.4801 -0.98275,2.08826 0.3973,0.60745 1.48013,0.6593 2.41985,0.11461 0.93971,-0.54478 1.38005,-1.48019 0.98274,-2.08835 -0.20215,-0.30901 -0.59645,-0.48787 -1.08582,-0.49118 z"
       style="fill:#888888;stroke:#888888;stroke-width:1.85513;stroke-linecap:round;stroke-miterlimit:6.5;paint-order:markers stroke fill;stop-color:#000000;fill-opacity:1;stroke-opacity:1"
       id="rect833" />
    <g
       id="g1911-8-3-9-3-2-8"
       transform="matrix(2.2958778,0,0,2.2958778,-1239.855,-844.0544)"
       inkscape:export-filename="/home/carter/code/bevy/assets/bevy_logo_dark.png"
       inkscape:export-xdpi="81.422768"
       inkscape:export-ydpi="81.422768"
       style="opacity:1;fill:#787878;fill-opacity:1;stroke-width:0.755906;stroke-miterlimit:4;stroke-dasharray:none">
      <g
         transform="matrix(-0.40426719,-0.17438247,-0.17438247,0.40426719,678.77611,389.84765)"
         style="fill:#787878;fill-opacity:1"
         id="g1121-3-8-8-2-8-7-1-2-8-3-9-6-0-1"
         inkscape:export-filename="/home/carter/code/bevy/assets/temp_bevy_logo.png"
         inkscape:export-xdpi="81.422768"
         inkscape:export-ydpi="81.422768" />
    </g>
    <g
       id="g1051-1-2-0-8-6-0-8-1-5-6-9-6-8-9"
       transform="matrix(-0.87069993,0.70365609,0.70365609,0.87069993,132.88964,-138.95394)"
       style="opacity:1;fill:#ececec;fill-opacity:1;stroke:none;stroke-width:0.755906;stroke-miterlimit:4;stroke-dasharray:none;stroke-opacity:1"
       inkscape:export-filename="/home/carter/code/bevy/assets/bevy_logo_dark.png"
       inkscape:export-xdpi="81.422768"
       inkscape:export-ydpi="81.422768">
      <g
         id="g3029-3-9-3"
         transform="matrix(-0.35254083,0.28490586,0.28490586,0.35254083,477.11004,-1021.7666)"
         style="opacity:1;fill:#ececec;fill-opacity:1" />
    </g>
    <g
       style="opacity:1;fill:#b2b2b2;fill-opacity:1;stroke-width:0.755906;stroke-miterlimit:4;stroke-dasharray:none"
       id="g1051-1-1-8-8-4-9-4-0-4-6-4-7-6-6-0"
       transform="matrix(-0.96869756,0.12954911,0.12954911,0.96869756,292.50884,-53.749946)"
       inkscape:export-filename="/home/carter/code/bevy/assets/bevy_logo_dark.png"
       inkscape:export-xdpi="81.422768"
       inkscape:export-ydpi="81.422768">
      <g
         style="fill:#b2b2b2;fill-opacity:1"
         id="g1129-5-9-8-0-7-2-7-3-8-61-1-6-8"
         transform="translate(-20.244579,-6.1209206)">
        <g
           style="fill:#b2b2b2;fill-opacity:1"
           id="g1344-1-3-9-3-8-8-8-3-5-4-8"
           transform="translate(61.54776,-5.6726683)">
          <g
             id="g1121-7-7-2-3-3-7-4-5-8-2-5-9-5"
             style="fill:#b2b2b2;fill-opacity:1">
            <g
               id="g3006-4-5-0"
               transform="matrix(-0.514626,0.06882369,0.06882369,0.514626,1184.3644,-811.9091)"
               style="opacity:1;fill:#b2b2b2;fill-opacity:1" />
          </g>
        </g>
      </g>
    </g>
  </g>
</svg>
