<?xml version="1.0" encoding="UTF-8" standalone="no"?>
<svg
   xmlns:dc="http://purl.org/dc/elements/1.1/"
   xmlns:cc="http://creativecommons.org/ns#"
   xmlns:rdf="http://www.w3.org/1999/02/22-rdf-syntax-ns#"
   xmlns:svg="http://www.w3.org/2000/svg"
   xmlns="http://www.w3.org/2000/svg"
   xmlns:sodipodi="http://sodipodi.sourceforge.net/DTD/sodipodi-0.dtd"
   xmlns:inkscape="http://www.inkscape.org/namespaces/inkscape"
   height="512.0426"
   width="1354.4835"
   inkscape:version="1.0 (4035a4fb49, 2020-05-01)"
   sodipodi:docname="platform-icons.svg"
   id="svg4"
   version="1.1"
   viewBox="0 0 1354.4835 512.0426">
  <metadata
     id="metadata10">
    <rdf:RDF>
      <cc:Work
         rdf:about="">
        <dc:format>image/svg+xml</dc:format>
        <dc:type
           rdf:resource="http://purl.org/dc/dcmitype/StillImage" />
        <dc:title></dc:title>
      </cc:Work>
    </rdf:RDF>
  </metadata>
  <defs
     id="defs8" />
  <sodipodi:namedview
     fit-margin-bottom="0"
     fit-margin-right="0"
     fit-margin-left="0"
     fit-margin-top="0"
     inkscape:current-layer="svg4"
     inkscape:window-maximized="1"
     inkscape:window-y="0"
     inkscape:window-x="0"
     inkscape:cy="504.11107"
     inkscape:cx="583.98512"
     inkscape:zoom="0.70848785"
     showgrid="false"
     id="namedview6"
     inkscape:window-height="1440"
     inkscape:window-width="3440"
     inkscape:pageshadow="2"
     inkscape:pageopacity="0"
     guidetolerance="10"
     gridtolerance="10"
     objecttolerance="10"
     borderopacity="1"
     bordercolor="#666666"
     pagecolor="#ffffff" />
  <path
     style="fill:#ececec;fill-opacity:1"
     id="path2"
     d="m 816.31719,260.94975 c -0.2,-36.7 16.4,-64.4 50,-84.8 -18.8,-26.9 -47.2,-41.7 -84.7,-44.6 -35.5,-2.8 -74.3,20.7 -88.5,20.7 -15,0 -49.4,-19.7 -76.4,-19.7 -55.8,0.9 -115.1,44.5 -115.1,133.2 q 0,39.3 14.4,81.2 c 12.8,36.7 59,126.7 107.2,125.2 25.2,-0.6 43,-17.9 75.8,-17.9 31.8,0 48.3,17.9 76.4,17.9 48.6,-0.7 90.4,-82.5 102.6,-119.3 -65.2,-30.7 -61.7,-90 -61.7,-91.9 z m -56.6,-164.200002 c 27.3,-32.4 24.8,-61.9 24,-72.5 -24.1,1.4 -52,16.4 -67.9,34.9 -17.5,19.8 -27.8,44.300002 -25.6,71.900002 26.1,2 49.9,-11.4 69.5,-34.300002 z" />
  <path
     style="fill:#ececec;fill-opacity:1"
     d="m 1139.7605,123.30029 c 1,0.5 1.8,1.7 3,1.7 1.1,0 2.8,-0.4 2.9,-1.5 0.2,-1.4 -1.9,-2.3 -3.2,-2.9 -1.7,-0.7 -3.9,-1 -5.5,-0.1 -0.4,0.2 -0.8,0.7 -0.6,1.1 0.3,1.3 2.3,1.1 3.4,1.7 z m -21.9,1.7 c 1.2,0 2,-1.2 3,-1.7 1.1,-0.6 3.1,-0.4 3.5,-1.6 0.2,-0.4 -0.2,-0.9 -0.6,-1.1 -1.6,-0.9 -3.8,-0.6 -5.5,0.1 -1.3,0.6 -3.4,1.5 -3.2,2.9 0.1,1 1.8,1.5 2.8,1.4 z m 221.1,278.79999 c -3.6,-4 -5.3,-11.6 -7.2,-19.7 -1.8,-8.1 -3.9,-16.8 -10.5,-22.4 -1.3,-1.1 -2.6,-2.1 -4,-2.9 -1.3,-0.8 -2.7,-1.5 -4.1,-2 9.2,-27.3 5.6,-54.5 -3.7,-79.09999 -11.4,-30.1 -31.3,-56.4 -46.5,-74.4 -17.1,-21.5 -33.7,-41.9 -33.4,-72 0.5,-45.9 5.1,-131.20000083 -75.8,-131.30000082546 -102.4,-0.20000000454 -76.8,103.40000082546 -77.9,135.20000082546 -1.7,23.4 -6.4,41.8 -22.5,64.7 -18.9,22.5 -45.5,58.8 -58.09999,96.69999 -6,17.9 -8.8,36.1 -6.2,53.3 -6.5,5.8 -11.4,14.7 -16.6,20.2 -4.2,4.3 -10.3,5.9 -17,8.3 -6.7,2.4 -14,6 -18.5,14.5 -2.1,3.9 -2.8,8.1 -2.8,12.4 0,3.9 0.6,7.9 1.2,11.8 1.2,8.1 2.5,15.7 0.8,20.8 -5.2,14.4 -5.9,24.4 -2.2,31.7 3.8,7.3 11.4,10.5 20.1,12.3 17.3,3.6 40.8,2.7 59.29999,12.5 19.8,10.4 39.9,14.1 55.9,10.4 11.6,-2.6 21.1,-9.6 25.9,-20.2 12.5,-0.1 26.3,-5.4 48.3,-6.6 14.9,-1.2 33.6,5.3 55.1,4.1 0.6,2.3 1.4,4.6 2.5,6.7 v 0.1 c 8.3,16.7 23.8,24.3 40.3,23 16.6,-1.3 34.1,-11 48.3,-27.9 13.6,-16.4 36,-23.2 50.9,-32.2 7.4,-4.5 13.4,-10.1 13.9,-18.3 0.4,-8.2 -4.4,-17.3 -15.5,-29.7 z m -196.3,-316.49999 c 9.8,-22.2 34.2,-21.8 44,-0.4 6.5,14.2 3.6,30.9 -4.3,40.4 -1.6,-0.8 -5.9,-2.6 -12.6,-4.9 1.1,-1.2 3.1,-2.7 3.9,-4.6 4.8,-11.8 -0.2,-27 -9.1,-27.3 -7.3,-0.5 -13.9,10.8 -11.8,23 -4.1,-2 -9.4,-3.5 -13,-4.4 -1,-6.9 -0.3,-14.6 2.9,-21.8 z m -40.7,-11.5 c 10.1,0 20.8,14.2 19.1,33.5 -3.5,1 -7.1,2.5 -10.2,4.6 1.2,-8.9 -3.3,-20.1 -9.6,-19.6 -8.4,0.7 -9.8,21.2 -1.8,28.1 1,0.8 1.9,-0.2 -5.9,5.5 -15.6,-14.6 -10.5,-52.1 8.4,-52.1 z m -13.6,60.7 c 6.2,-4.6 13.6,-10 14.1,-10.5 4.7,-4.4 13.5,-14.2 27.9,-14.2 7.1,0 15.6,2.3 25.9,8.9 6.3,4.1 11.3,4.4 22.6,9.3 8.4,3.5 13.7,9.7 10.5,18.2 -2.6,7.1 -11,14.4 -22.7,18.1 -11.1,3.6 -19.8,16 -38.2,14.9 -3.9,-0.2 -7,-1 -9.6,-2.1 -8,-3.5 -12.2,-10.4 -20,-15 -8.6,-4.8 -13.2,-10.4 -14.7,-15.3 -1.4,-4.9 0,-9 4.2,-12.3 z m 3.3,333.99999 c -2.7,35.1 -43.9,34.4 -75.3,18 -29.89999,-15.8 -68.59999,-6.5 -76.49999,-21.9 -2.4,-4.7 -2.4,-12.7 2.6,-26.4 v -0.2 c 2.4,-7.6 0.6,-16 -0.6,-23.9 -1.2,-7.8 -1.8,-15 0.9,-20 3.5,-6.7 8.5,-9.1 14.8,-11.3 10.3,-3.7 11.8,-3.4 19.6,-9.9 5.5,-5.7 9.5,-12.9 14.3,-18 5.1,-5.5 9.99999,-8.1 17.69999,-6.9 8.1,1.2 15.1,6.8 21.9,16 l 19.6,35.6 c 9.5,19.9 43.1,48.4 41,68.9 z m -1.4,-25.9 c -4.1,-6.6 -9.6,-13.6 -14.4,-19.6 7.1,0 14.2,-2.2 16.7,-8.9 2.3,-6.2 0,-14.9 -7.4,-24.9 -13.5,-18.2 -38.3,-32.5 -38.3,-32.5 -13.5,-8.4 -21.1,-18.7 -24.6,-29.9 -3.5,-11.2 -3,-23.3 -0.3,-35.2 5.2,-22.89999 18.6,-45.19999 27.2,-59.19999 2.3,-1.7 0.8,3.2 -8.7,20.8 -8.5,16.1 -24.4,53.29999 -2.6,82.39999 0.6,-20.7 5.5,-41.8 13.8,-61.49999 12,-27.4 37.3,-74.9 39.3,-112.7 1.1,0.8 4.6,3.2 6.2,4.1 4.6,2.7 8.1,6.7 12.6,10.3 12.4,10 28.5,9.2 42.4,1.2 6.2,-3.5 11.2,-7.5 15.9,-9 9.9,-3.1 17.8,-8.6 22.3,-15 7.7,30.4 25.7,74.3 37.2,95.7 6.1,11.4 18.3,35.5 23.6,64.59999 3.3,-0.1 7,0.4 10.9,1.4 13.8,-35.69999 -11.7,-74.19999 -23.3,-84.89999 -4.7,-4.6 -4.9,-6.6 -2.6,-6.5 12.6,11.2 29.2,33.7 35.2,59 2.8,11.59999 3.3,23.69999 0.4,35.69999 16.4,6.8 35.9,17.9 30.7,34.8 -2.2,-0.1 -3.2,0 -4.2,0 3.2,-10.1 -3.9,-17.6 -22.8,-26.1 -19.6,-8.6 -36,-8.6 -38.3,12.5 -12.1,4.2 -18.3,14.7 -21.4,27.3 -2.8,11.2 -3.6,24.7 -4.4,39.9 -0.5,7.7 -3.6,18 -6.8,29 -32.1,22.9 -76.7,32.9 -114.3,7.2 z m 257.4,-11.5 c -0.9,16.8 -41.2,19.9 -63.2,46.5 -13.2,15.7 -29.4,24.4 -43.6,25.5 -14.2,1.1 -26.5,-4.8 -33.7,-19.3 -4.7,-11.1 -2.4,-23.1 1.1,-36.3 3.7,-14.2 9.2,-28.8 9.9,-40.6 0.8,-15.2 1.7,-28.5 4.2,-38.7 2.6,-10.3 6.6,-17.2 13.7,-21.1 0.3,-0.2 0.7,-0.3 1,-0.5 0.8,13.2 7.3,26.6 18.8,29.5 12.6,3.3 30.7,-7.5 38.4,-16.3 9,-0.3 15.7,-0.9 22.6,5.1 9.9,8.5 7.1,30.3 17.1,41.6 10.6,11.6 14,19.5 13.7,24.6 z m -255.4,-284.39999 c 2,1.9 4.7,4.5 8,7.1 6.6,5.2 15.8,10.6 27.3,10.6 11.6,0 22.5,-5.9 31.8,-10.8 4.9,-2.6 10.9,-7 14.8,-10.4 3.9,-3.4 5.9,-6.3 3.1,-6.6 -2.8,-0.3 -2.6,2.6 -6,5.1 -4.4,3.2 -9.7,7.4 -13.9,9.8 -7.4,4.2 -19.5,10.2 -29.9,10.2 -10.4,0 -18.7,-4.8 -24.9,-9.7 -3.1,-2.5 -5.7,-5 -7.7,-6.9 -1.5,-1.4 -1.9,-4.6 -4.3,-4.9 -1.4,-0.1 -1.8,3.7 1.7,6.5 z"
     id="path2-9" />
  <path
     style="fill:#ececec;fill-opacity:1"
     d="M 0,110.19949 183.6,84.899497 V 262.29949 H 0 Z m 0,324.6 183.6,25.3 v -175.2 H 0 Z m 203.8,28 244.2,33.7 v -211.6 H 203.8 Z m 0,-380.599993 V 262.29949 H 448 V 48.499497 Z"
     id="path2-97" />
</svg>
